<?xml version="1.0" encoding="UTF-8"?>
<svg width="210mm" height="297mm" version="1.1" viewBox="0 0 744.09448819 1052.3622047" xmlns="http://www.w3.org/2000/svg">
 <defs>
  <filter id="a" x="-.052249" y="-.11146" width="1.1045" height="1.2229" color-interpolation-filters="sRGB">
   <feGaussianBlur stdDeviation="9.1901021"/>
  </filter>
 </defs>
 <g stroke="#000" stroke-linecap="round" stroke-linejoin="round" stroke-opacity=".023891">
  <ellipse cx="317.02" cy="462.46" rx="419.25" ry="419.25" fill="#241f1c" stroke-width="1.4993"/>
  <rect x="359.71" y="553.74" width="31.444" height="145.73" ry="20.592" fill="#006680" stroke-miterlimit="1" stroke-width=".48443"/>
  <rect x="267.26" y="635.81" width="34.31" height="128.6" ry="18.171" fill="#006680" stroke-miterlimit="1" stroke-width=".47535"/>
  <rect x="172.15" y="542.7" width="37.118" height="144.65" ry="20.44" fill="#006680" stroke-miterlimit="1" stroke-width=".52437"/>
  <rect x="267.2" y="527.13" width="32.225" height="88.694" ry="16.243" fill="#006680" stroke-width="1.5705"/>
  <rect transform="matrix(1.1054 0 0 1.1163 -4.4056 -88.247)" x="60.662" y="407.94" width="422.14" height="197.88" ry="22.411" fill="#241f1c" fill-opacity=".875" filter="url(#a)" stroke-width="1.5764"/>
  <rect x="45.709" y="320.93" width="406.76" height="242.86" ry="121.43" fill="#b3b3b3" stroke-miterlimit="1" stroke-width=".49039"/>
  <rect x="117.13" y="218.03" width="261.17" height="191.51" ry="95.756" fill="#b3b3b3" stroke-miterlimit="1" stroke-width=".4146"/>
  <rect x="169.42" y="340.96" width="453.41" height="222.8" ry="111.4" fill="#b3b3b3" stroke-miterlimit="1" stroke-width=".55441"/>
  <rect x="271.14" y="261" width="219.73" height="142.72" ry="71.358" fill="#b3b3b3" stroke-miterlimit="1" stroke-width=".63257"/>
 </g>
</svg>
